<svg xmlns="http://www.w3.org/2000/svg" viewBox="0 0 24 24" fill="currentColor">
  <path d="M12.04 2C6.58 2 2.13 6.45 2.13 11.91c0 1.75.46 3.45 1.32 4.95L2 22l5.25-1.38c1.45.79 3.08 1.21 4.79 1.21h.01c5.46 0 9.91-4.45 9.91-9.91 0-2.65-1.03-5.14-2.9-7.01A9.82 9.82 0 0 0 12.04 2zm0 1.67c2.2 0 4.27.86 5.82 2.42a8.18 8.18 0 0 1 2.41 5.82c0 4.54-3.7 8.24-8.24 8.24-1.52 0-3-.41-4.3-1.18l-.31-.18-3.12.82.83-3.04-.2-.31a8.18 8.18 0 0 1-1.26-4.35c0-4.54 3.7-8.24 8.24-8.24zm-2.93 4.47c-.16 0-.42.06-.64.3-.22.24-.85.83-.85 2.03 0 1.2.87 2.36.99 2.52.12.16 1.71 2.61 4.15 3.66.58.25 1.03.4 1.38.51.58.18 1.11.16 1.53.1.47-.07 1.44-.59 1.64-1.16.2-.57.2-1.06.14-1.16-.06-.1-.22-.16-.46-.28-.24-.12-1.44-.71-1.66-.79-.22-.08-.38-.12-.54.12-.16.24-.62.79-.76.95-.14.16-.28.18-.52.06-.24-.12-1.02-.38-1.94-1.2-.72-.64-1.2-1.43-1.34-1.67-.14-.24-.01-.37.11-.49.11-.11.24-.28.36-.42.12-.14.16-.24.24-.4.08-.16.04-.3-.02-.42-.06-.12-.54-1.3-.74-1.78-.2-.47-.4-.4-.54-.41-.14-.01-.3-.01-.46-.01z"/>
</svg>
